<?xml version="1.0" encoding="UTF-8" standalone="no"?>
<svg
   xmlns:dc="http://purl.org/dc/elements/1.1/"
   xmlns:cc="http://creativecommons.org/ns#"
   xmlns:rdf="http://www.w3.org/1999/02/22-rdf-syntax-ns#"
   xmlns:svg="http://www.w3.org/2000/svg"
   xmlns="http://www.w3.org/2000/svg"
   version="1.1"
   id="svg2"
   viewBox="0 0 1499.9999 1499.9999"
   height="423.33331mm"
   width="423.33331mm">
  <defs
     id="defs4" />
  <metadata
     id="metadata7">
    <rdf:RDF>
      <cc:Work
         rdf:about="">
        <dc:format>image/svg+xml</dc:format>
        <dc:type
           rdf:resource="http://purl.org/dc/dcmitype/StillImage" />
        <dc:title></dc:title>
      </cc:Work>
    </rdf:RDF>
  </metadata>
  <g
     transform="translate(303.45686,120.07927)"
     id="layer1">
    <g
       id="g4241">
      <circle
         style="fill:#000000;fill-opacity:1;fill-rule:nonzero;stroke:#000000;stroke-width:43.23702621;stroke-linecap:round;stroke-linejoin:round;stroke-miterlimit:4;stroke-dasharray:none;stroke-dashoffset:0;stroke-opacity:1"
         id="path4239"
         cx="446.54312"
         cy="629.92072"
         r="728.38147" />
      <g
         id="g4198"
         transform="translate(-42.100875,54.558513)">
        <path
           id="path4165"
           d="m 0,202.3622 0,850 746.42858,0 0,-1049.9999953 -546.42858,0 z"
           style="fill:#ffffff;fill-opacity:1;fill-rule:evenodd;stroke:#000000;stroke-width:25;stroke-linecap:butt;stroke-linejoin:round;stroke-miterlimit:4;stroke-dasharray:none;stroke-opacity:1" />
        <g
           style="font-style:normal;font-weight:normal;font-size:40px;line-height:100%;font-family:sans-serif;letter-spacing:0px;word-spacing:0px;fill:#000000;fill-opacity:1;stroke:none;stroke-width:1px;stroke-linecap:butt;stroke-linejoin:miter;stroke-opacity:1"
           id="text4150">
          <path
             d="m 290.55764,162.53791 19.4,0 0,138.6 -19.4,0 0,-138.6 z"
             style="font-style:normal;font-variant:normal;font-weight:normal;font-stretch:normal;font-size:200px;line-height:100%;font-family:Ubuntu;-inkscape-font-specification:Ubuntu"
             id="path4212" />
          <path
             d="m 420.55764,303.13791 q -17.2,-0.4 -24.4,-7.4 -7.2,-7 -7.2,-21.8 l 0,-124.8 18.6,-3.2 0,125 q 0,4.6 0.8,7.6 0.8,3 2.6,4.8 1.8,1.8 4.8,2.8 3,0.8 7.4,1.4 l -2.6,15.6 z"
             style="font-style:normal;font-variant:normal;font-weight:normal;font-stretch:normal;font-size:200px;line-height:100%;font-family:Ubuntu;-inkscape-font-specification:Ubuntu"
             id="path4214" />
          <path
             d="m 462.64514,301.13791 -18.6,0 0,-104 18.6,0 0,104 z m -9.4,-122.8 q -5,0 -8.6,-3.2 -3.4,-3.4 -3.4,-9 0,-5.6 3.4,-8.8 3.6,-3.4 8.6,-3.4 5,0 8.4,3.4 3.6,3.2 3.6,8.8 0,5.6 -3.6,9 -3.4,3.2 -8.4,3.2 z"
             style="font-style:normal;font-variant:normal;font-weight:normal;font-stretch:normal;font-size:200px;line-height:100%;font-family:Ubuntu;-inkscape-font-specification:Ubuntu"
             id="path4216" />
          <path
             d="m 532.42639,243.93791 q 6,4.6 12.6,11.4 6.8,6.8 13.2,14.8 6.6,7.8 12.4,16 5.8,8 9.8,15 l -21.8,0 q -4.2,-7 -9.8,-14.2 -5.4,-7.4 -11.4,-14 -6,-6.8 -12.2,-12.4 -6.2,-5.6 -11.8,-9.4 l 0,50 -18.6,0 0,-152 18.6,-3.2 0,94.8 q 4.8,-4.8 10.6,-10.6 5.8,-5.8 11.4,-11.8 5.6,-6 10.6,-11.4 5,-5.6 8.6,-9.8 l 21.8,0 q -4.6,5 -10,11 -5.4,6 -11.2,12.2 -5.8,6 -11.8,12.2 -5.8,6 -11,11.4 z"
             style="font-style:normal;font-variant:normal;font-weight:normal;font-stretch:normal;font-size:200px;line-height:100%;font-family:Ubuntu;-inkscape-font-specification:Ubuntu"
             id="path4218" />
          <path
             d="m 588.24514,249.33791 q 0,-13.8 4,-24 4,-10.4 10.6,-17.2 6.6,-6.8 15.2,-10.2 8.6,-3.4 17.6,-3.4 21,0 32.2,13.2 11.2,13 11.2,39.8 0,1.2 0,3.2 0,1.8 -0.2,3.4 l -71.2,0 q 1.2,16.2 9.4,24.6 8.2,8.4 25.6,8.4 9.8,0 16.4,-1.6 6.8,-1.8 10.2,-3.4 l 2.6,15.6 q -3.4,1.8 -12,3.8 -8.4,2 -19.2,2 -13.6,0 -23.6,-4 -9.8,-4.2 -16.2,-11.4 -6.4,-7.2 -9.6,-17 -3,-10 -3,-21.8 z m 71.4,-10.2 q 0.2,-12.6 -6.4,-20.6 -6.4,-8.2 -17.8,-8.2 -6.4,0 -11.4,2.6 -4.8,2.4 -8.2,6.4 -3.4,4 -5.4,9.2 -1.8,5.2 -2.4,10.6 l 51.6,0 z"
             style="font-style:normal;font-variant:normal;font-weight:normal;font-stretch:normal;font-size:200px;line-height:100%;font-family:Ubuntu;-inkscape-font-specification:Ubuntu"
             id="path4220" />
          <path
             d="m 122.38264,397.13791 39.4,0 0,15.6 -39.4,0 0,48 q 0,7.8 1.2,13 1.2,5 3.6,8 2.4,2.8 6,4 3.6,1.2 8.4,1.2 8.4,0 13.4,-1.8 5.2,-2 7.2,-2.8 l 3.6,15.4 q -2.8,1.4 -9.8,3.4 -7,2.2 -16,2.2 -10.6,0 -17.6,-2.6 -6.8,-2.8 -11,-8.2 -4.2,-5.4 -6,-13.2 -1.6,-8 -1.6,-18.4 l 0,-92.8 18.6,-3.2 0,32.2 z"
             style="font-style:normal;font-variant:normal;font-weight:normal;font-stretch:normal;font-size:200px;line-height:100%;font-family:Ubuntu;-inkscape-font-specification:Ubuntu"
             id="path4222" />
          <path
             d="m 274.51701,449.13791 q 0,12.4 -3.6,22.4 -3.6,10 -10.2,17.2 -6.4,7.2 -15.4,11.2 -9,3.8 -19.6,3.8 -10.6,0 -19.6,-3.8 -9,-4 -15.6,-11.2 -6.4,-7.2 -10,-17.2 -3.6,-10 -3.6,-22.4 0,-12.2 3.6,-22.2 3.6,-10.2 10,-17.4 6.6,-7.2 15.6,-11 9,-4 19.6,-4 10.6,0 19.6,4 9,3.8 15.4,11 6.6,7.2 10.2,17.4 3.6,10 3.6,22.2 z m -19.4,0 q 0,-17.6 -8,-27.8 -7.8,-10.4 -21.4,-10.4 -13.6,0 -21.6,10.4 -7.8,10.2 -7.8,27.8 0,17.6 7.8,28 8,10.2 21.6,10.2 13.6,0 21.4,-10.2 8,-10.4 8,-28 z"
             style="font-style:normal;font-variant:normal;font-weight:normal;font-stretch:normal;font-size:200px;line-height:100%;font-family:Ubuntu;-inkscape-font-specification:Ubuntu"
             id="path4224" />
          <path
             d="m 123.58264,901.13791 -18.6,0 0,-104 18.6,0 0,104 z m -9.4,-122.8 q -5,0 -8.6,-3.2 -3.4,-3.4 -3.4,-9 0,-5.6 3.4,-8.8 3.6,-3.4 8.6,-3.4 5,0 8.4,3.4 3.6,3.2 3.6,8.8 0,5.6 -3.6,9 -3.4,3.2 -8.4,3.2 z"
             style="font-style:normal;font-variant:normal;font-weight:normal;font-stretch:normal;font-size:200px;line-height:100%;font-family:Ubuntu;-inkscape-font-specification:Ubuntu"
             id="path4226" />
          <path
             d="m 173.16389,797.13791 39.4,0 0,15.6 -39.4,0 0,48 q 0,7.8 1.2,13 1.2,5 3.6,8 2.4,2.8 6,4 3.6,1.2 8.4,1.2 8.4,0 13.4,-1.8 5.2,-2 7.2,-2.8 l 3.6,15.4 q -2.8,1.4 -9.8,3.4 -7,2.2 -16,2.2 -10.6,0 -17.6,-2.6 -6.8,-2.8 -11,-8.2 -4.2,-5.4 -6,-13.2 -1.6,-8 -1.6,-18.4 l 0,-92.8 18.6,-3.2 0,32.2 z"
             style="font-style:normal;font-variant:normal;font-weight:normal;font-stretch:normal;font-size:200px;line-height:100%;font-family:Ubuntu;-inkscape-font-specification:Ubuntu"
             id="path4228" />
        </g>
        <g
           id="g4182"
           transform="matrix(1.3562941,0,0,1.3562941,-308.32808,-163.26066)">
          <path
             style="fill:#ffffff;fill-opacity:1;fill-rule:evenodd;stroke:#000000;stroke-width:10.77994442;stroke-linecap:butt;stroke-linejoin:miter;stroke-miterlimit:4;stroke-dasharray:none;stroke-opacity:1"
             d="m 534.72087,429.53789 -186.33904,178.89574 186.33904,178.89574 467.13093,0 0,-357.79148 z"
             id="path4167" />
          <g
             style="font-style:normal;font-weight:normal;font-size:40px;line-height:125%;font-family:sans-serif;letter-spacing:0px;word-spacing:0px;fill:#000000;fill-opacity:1;stroke:none;stroke-width:1px;stroke-linecap:butt;stroke-linejoin:miter;stroke-opacity:1"
             id="text4169">
            <path
               d="m 554.59543,537.33365 q 26.55,0 41.175,11.025 14.625,10.8 14.625,35.55 0,24.975 -14.85,36.225 -14.625,11.025 -41.625,11.025 l -9.9,0 0,47.025 -27.675,0 0,-137.475 q 4.05,-0.9 9,-1.575 5.175,-0.675 10.35,-0.9 5.175,-0.45 10.125,-0.675 4.95,-0.225 8.775,-0.225 z m 3.15,24.075 q -2.475,0 -6.975,0.225 -4.275,0 -6.75,0.45 l 0,45 11.25,0 q 13.275,0 20.025,-5.175 6.75,-5.4 6.75,-18.225 0,-12.15 -6.75,-17.1 -6.525,-5.175 -17.55,-5.175 z"
               style="font-style:normal;font-variant:normal;font-weight:bold;font-stretch:normal;font-size:225px;font-family:'Ubuntu Mono';-inkscape-font-specification:'Ubuntu Mono Bold'"
               id="path4231" />
            <path
               d="m 664.84543,537.33365 q 11.925,0 21.6,2.7 9.675,2.7 16.65,8.325 6.975,5.625 10.575,14.4 3.825,8.55 3.825,20.25 0,12.15 -4.95,22.05 -4.95,9.9 -16.425,15.075 3.825,5.85 8.1,13.05 4.275,6.975 8.325,14.85 4.05,7.65 7.65,15.525 3.825,7.65 6.525,14.625 l -29.025,0 q -5.175,-13.5 -12.15,-25.875 -6.75,-12.6 -14.625,-25.425 l -14.4,0 0,51.3 -27.675,0 0,-137.25 q 4.05,-0.9 8.775,-1.575 4.95,-0.9 9.9,-1.125 4.95,-0.45 9.45,-0.675 4.5,-0.225 7.875,-0.225 z m 24.525,45.45 q 0,-11.025 -6.75,-16.2 -6.75,-5.175 -17.775,-5.175 -1.575,0 -3.825,0.225 -2.25,0 -4.5,0.45 l 0,41.85 6.075,0 q 14.175,0 20.475,-5.4 6.3,-5.625 6.3,-15.75 z"
               style="font-style:normal;font-variant:normal;font-weight:bold;font-stretch:normal;font-size:225px;font-family:'Ubuntu Mono';-inkscape-font-specification:'Ubuntu Mono Bold'"
               id="path4233" />
            <path
               d="m 763.39543,608.43365 q 0,10.125 0.675,19.125 0.9,8.775 3.15,15.3 2.475,6.525 6.75,10.35 4.275,3.825 11.475,3.825 6.975,0 11.25,-3.825 4.5,-3.825 6.75,-10.35 2.475,-6.75 3.15,-15.525 0.9,-8.775 0.9,-18.9 0,-10.125 -0.9,-18.9 -0.675,-9 -3.15,-15.525 -2.25,-6.525 -6.525,-10.35 -4.275,-3.825 -11.475,-3.825 -7.2,0 -11.475,3.825 -4.275,3.825 -6.75,10.575 -2.25,6.525 -3.15,15.3 -0.675,8.775 -0.675,18.9 z m -28.125,0 q 0,-36 13.275,-54.225 13.275,-18.45 36.9,-18.45 24.525,0 37.35,18.45 12.825,18.225 12.825,54.225 0,36 -13.05,54.45 -13.05,18.225 -36.9,18.225 -24.525,0 -37.575,-18.225 -12.825,-18.45 -12.825,-54.45 z"
               style="font-style:normal;font-variant:normal;font-weight:bold;font-stretch:normal;font-size:225px;font-family:'Ubuntu Mono';-inkscape-font-specification:'Ubuntu Mono Bold'"
               id="path4235" />
            <path
               d="m 883.54543,678.18365 q -5.4,-15.525 -11.475,-35.1 -6.075,-19.575 -11.475,-38.925 -5.4,-19.575 -9.675,-36.9 -4.275,-17.325 -6.3,-28.35 l 29.25,0 q 1.35,10.8 4.05,25.2 2.7,14.175 5.85,29.475 3.375,15.075 6.975,29.925 3.825,14.625 7.425,26.325 3.6,-11.475 7.2,-26.1 3.6,-14.85 6.75,-29.925 3.15,-15.3 5.85,-29.7 2.7,-14.4 4.5,-25.2 l 29.025,0 q -2.7,13.5 -6.75,30.15 -3.825,16.65 -9,35.1 -4.95,18.225 -11.025,37.35 -6.075,18.9 -12.6,36.675 l -28.575,0 z"
               style="font-style:normal;font-variant:normal;font-weight:bold;font-stretch:normal;font-size:225px;font-family:'Ubuntu Mono';-inkscape-font-specification:'Ubuntu Mono Bold'"
               id="path4237" />
          </g>
        </g>
        <path
           style="fill:none;fill-rule:evenodd;stroke:#000000;stroke-width:25;stroke-linecap:butt;stroke-linejoin:miter;stroke-miterlimit:4;stroke-dasharray:none;stroke-opacity:1"
           d="m 0,202.3622 200,0 0,-199.999995"
           id="path4187" />
      </g>
    </g>
  </g>
</svg>
